<?xml version="1.0" encoding="UTF-8"?>
<svg xmlns="http://www.w3.org/2000/svg" viewBox="0 0 200 200">
  <defs>
    <linearGradient id="bg-gradient" x1="0%" y1="0%" x2="100%" y2="100%">
      <stop offset="0%" stop-color="#e30611" />
      <stop offset="100%" stop-color="#000000" />
    </linearGradient>
  </defs>
  
  <!-- Background Circle -->
  <circle cx="100" cy="100" r="100" fill="url(#bg-gradient)" />
  
  <!-- Head -->
  <circle cx="100" cy="80" r="40" fill="#333" />
  
  <!-- Hair - curly for Хэнк -->
  <path d="M60 80 Q 70 40, 100 45 Q 130 40, 140 80" fill="#111" />
  <circle cx="65" cy="75" r="8" fill="#111" />
  <circle cx="75" cy="65" r="8" fill="#111" />
  <circle cx="90" cy="60" r="8" fill="#111" />
  <circle cx="110" cy="60" r="8" fill="#111" />
  <circle cx="125" cy="65" r="8" fill="#111" />
  <circle cx="135" cy="75" r="8" fill="#111" />
  
  <!-- Body -->
  <path d="M60 120 Q 100 140, 140 120 L 140 200 L 60 200 Z" fill="#333" />
  
  <!-- Shirt/Tie -->
  <path d="M83 120 L 100 170 L 117 120" fill="#e30611" />
  <path d="M95 120 L 100 140 L 105 120" fill="white" />
</svg>